<?xml version="1.0" standalone="no"?><!DOCTYPE svg PUBLIC "-//W3C//DTD SVG 1.1//EN" "http://www.w3.org/Graphics/SVG/1.1/DTD/svg11.dtd"><svg t="1546672346189" class="icon" style="" viewBox="0 0 1038 1024" version="1.1" xmlns="http://www.w3.org/2000/svg" p-id="2487" xmlns:xlink="http://www.w3.org/1999/xlink" width="202.734375" height="200"><defs><style type="text/css"></style></defs><path d="M133.260274 107.309589c10.380274 6.620932 20.550137 13.606575 31.182904 19.77863 66.910685 38.785753 133.919562 77.403178 200.886356 116.062685l19.77863 11.418301-86.254465 149.391781-197.828384-114.225096c-13.115616 22.710356-25.880548 42.68537-36.415123 63.768548-7.911452 15.850959-2.833534 30.032658 13.003397 39.388932 42.082192 24.828493 84.374795 49.348384 127.074192 73.124822 19.554192 10.88526 31.154849 7.504658 44.831561-9.706959l30.944439-38.912 36.709698 44.691288c-18.081315 18.81074-34.395178 38.631452-53.654794 55.029479-17.618411 15.009315-40.356822 12.764932-59.420055 2.258411-57.414137-31.617753-114.435507-64.035068-170.390794-98.149699C5.877479 404.283616-3.787397 373.05863 11.474411 343.68526c26.329425-50.695014 56.558466-99.370082 85.721425-149.882739l43.344657 25.038904-14.546411 28.026739 151.28548 87.348603 35.657643-61.76263c-0.350685-1.038027-0.392767-2.805479-1.192328-3.268384-68.004822-39.220603-136.065753-78.343014-204.112658-117.479452L133.260274 107.323616zM267.123726 945.881425c-25.361534-19.049205-51.129863-37.635507-75.888219-57.442192-8.500603-6.775233-14.111562-17.02926-21.798575-24.95474-5.134027-5.274301-11.698849-9.15989-17.52022-13.802959-15.177644-12.063562-26.918575-25.165151-8.318246-49.390466l-32.82411 0.210411c-31.084712-42.909808-57.231781-92.959562-73.447452-147.932931a580.593973 580.593973 0 0 1-15.009315-63.445918c-1.711342-9.678904 1.739397-20.129315 1.430795-30.200986-0.182356-5.456658-3.548932-10.773041-5.134028-16.257754-2.552986-8.795178-11.432329-18.474082 3.591014-25.137095 1.599123-0.715397 2.076055-8.612822 1.486904-8.837261-17.520219-6.368438-6.78926-18.698521-8.037699-29.345315 34.212822 13.045479 38.715616 21.209425 25.263343 39.865863 8.696986 27.928548 17.674521 54.300055 9.636822 83.126356-0.869699 3.12811 2.510904 7.406466 3.787397 11.193863 2.595068 7.588822 5.610959 15.093479 7.49063 22.864658 1.472877 6.017753-0.126247 13.213808 2.524932 18.432 4.839452 9.566685 13.508384 17.35189 17.604383 27.114959a515.983781 515.983781 0 0 0 95.246028 149.251507c10.127781 11.123726 23.60811 19.147397 31.589698 30.944438 11.081644 16.384 28.910466 21.419836 43.092165 32.234959 16.846904 12.849096 34.43726 25.97874 53.738959 34.086575 43.989918 18.432 89.242301 33.876164 135.43452 51.073754l0.448877 8.093808 22.79452 3.086027-1.599123-3.633096c5.288329-2.496877 10.380274-6.256219 15.949151-7.196054 7.182027-1.206356 14.756822-0.154301 22.163287-0.070137l-0.098191 0.028054c-5.288329 10.702904-8.83726 21.56011-0.533041 34.942247-78.623562-8.753096-153.137096-22.023014-218.350466-66.672219-1.627178-1.108164-5.414575 0.953863-8.192 1.543014l-6.52274-3.77337zM796.363397 757.830137l-51.831233 89.775342-37.256767-21.518027 118.279014-204.870137-3.029918-3.043945-94.783123 50.568767 42.615233 20.367781c-5.891507 8.696986-10.268055 17.688548-17.057315 24.155178-3.969753 3.77337-12.638685 6.172055-17.716603 4.572931-20.42389-6.508712-40.440986-14.448219-60.261699-22.696328-5.372493-2.230356-14.167671-8.753096-13.508383-10.969425 3.576986-11.96537-3.633096-28.237151 12.652712-35.489315l66.602082-29.738082-38.280767-18.249644c0.925808-22.275507 3.885589-40.721534 29.990575-52.967452 31.36526-14.728767 59.153534-37.130521 90.448658-57.484274l28.054795 34.647671-91.879453 56.474301c23.706301 26.511781 39.136438-2.623123 59.714631-7.43452l17.828822 24.211288 17.520219-26.567891 70.038794 40.440986 27.746192-48.057863 39.55726 22.850631-27.353424 47.342465c24.211288 13.985315 46.865534 27.072877 70.515726 40.707507-3.043945 6.396493-5.021808 11.404274-7.687014 16.019288a138947.64011 138947.64011 0 0 1-108.109151 187.293808c-2.763397 4.79737-5.653041 9.552658-8.767123 14.125589-16.131507 23.636164-34.465315 28.503671-60.514192 16.131507-4.432658-2.118137-8.739068-4.530849-13.087561-6.803288-39.711562-20.844712-39.711562-20.844712-18.460055-63.698411 11.58663 6.691068 23.075068 13.550466 34.773918 20.017096 13.466301 7.462575 24.533918 5.849425 32.234958-8.949479 5.007781-9.622795 10.773041-18.838795 17.604384-30.677918l-27.830356 0.519014c0.098192-11.740932 0.280548-22.598137 0.280548-33.46937 0.014027-10.282082-0.140274-20.564164-0.224439-30.411397l-64.694356 32.992438-14.125589-30.116822z m105.822685-108.137205c-9.187945-5.302356-16.636493-10.548603-24.870575-13.859069-3.057973-1.234411-10.071671 0.785534-11.670795 3.464767-18.432 30.72-36.16263 61.860822-54.075616 92.903452 42.68537-13.63463 68.650082-44.032 90.616986-82.50915z m72.942466 41.899835c-7.785205-4.488767-13.971288-7.294247-19.259616-11.264-11.235945-8.458521-16.664548-3.731288-24.898631 6.129973-25.768329 30.860274-9.468493 64.666301-9.230027 97.588602l53.388274-92.440547zM304.885479 579.247342l-7.153972-55.408219c48.632986 4.236274 96.227945 4.348493 147.989041-11.446356l-33.511452-19.343781-40.511123-23.397698c-24.828493-14.350027-26.778301-25.249315-6.410521-44.817535 2.875616-2.777425 12.386192-1.963836 16.973151 0.575124 31.673863 17.492164 62.84274 35.854027 94.179945 53.94937l17.197589 9.931397c12.498411-4.15211 9.973479-29.457534 32.150795-16.341918l-1.669261-61.790685c8.458521-0.280548 16.622466-0.575123 27.774247-0.96789l-116.371288-67.191233 11.698849-44.017973c8.107836 4.685151 14.307945 8.486575 20.704439 11.923288 80.755726 43.344658 161.455342 86.857644 242.491616 129.697315 9.328219 4.923616 13.396164 9.370301 10.534576 19.554192-2.735342 9.763068-4.292384 19.862795-6.84537 32.150794l-146.319781-76.028493 4.250301 61.468055-37.383013-0.729425 18.05326 15.09348-11.221918 24.800438 46.276384 26.722192c22.682301 13.101589 45.11211 26.68011 68.17315 39.094356 10.94137 5.891507 11.895233 11.460384 6.214137 21.588164-13.971288 24.940712-13.522411 25.207233-39.416986 10.268055-24.169205-13.929205-48.310356-27.886466-77.248877-44.593096 13.045479 53.219945 38.982137 94.362301 69.028822 134.564822l-47.384548 19.217534c-29.31726-44.480877-49.755178-91.332384-63.75452-143.458191l-32.880219 56.951233c-5.12 8.879342-10.829151 17.478137-15.247781 26.708164-5.162082 10.801096-11.58663 12.203836-21.700384 5.330411-8.682959-5.891507-18.123397-10.646795-29.401425-17.155507l55.492384-96.101699-154.750247 23.201315zM595.687452 11.095671c4.250301 19.750575 25.445699 26.273315 41.450959 14.546411 3.983781-2.917699 11.095671-4.516822 15.724712-3.142137 22.654247 6.705096 44.957808 14.616548 66.630137 21.840658l-4.572931 9.454465c3.100055 0.154301 6.242192 0.673315 9.314192 0.392768 4.811397-0.434849 10.730959-3.619068 14.167671-1.809535 19.007123 9.959452 37.397041 21.111233 56.067507 31.884274l-26.231233 17.253699c-24.89863-10.857205-52.097753-26.287342-81.302795-34.563507-41.801644-11.867178-84.949918-19.357808-127.859726-26.876493-13.185753-2.314521-19.989041-4.699178-17.450082-20.746521l-9.735014 13.480329-177.600876 32.038576c-6.634959 5.456658-11.193863 10.492493-16.81885 13.57852-16.482192 9.033644-35.166685 15.023342-49.685041 26.427617-19.764603 15.514301-34.816 9.173918-52.967452-5.12C344.38663 24.884603 463.465205-5.49874 595.687452 11.081644z" fill="#FE6604" p-id="2488"></path><path d="M1024.547068 555.456877c-8.584767-4.446685-17.08537-6.887452-22.626191-12.34411-4.292384-4.208219-8.556712-13.887123-6.536767-18.137425 9.819178-20.550137-3.268384-39.585315-2.42674-59.33589 0.32263-7.294247-2.665205-14.728767-2.524932-22.051068 0.140274-5.835397 2.74937-11.614685 4.334466-17.646466-3.39463-6.20011-9.59474-13.396164-11.418301-21.532055-13.129644-58.774795-37.270795-113.243178-70.515726-162.942247-19.287671-28.840329-45.490849-53.121753-68.650082-79.395068-19.427945-22.051068-44.494904-36.906082-68.327453-53.360219-2.286466-1.571068-3.843507-4.166137-7.153972-7.86937 24.758356-3.731288 47.244274-12.821041 66.602082 10.211945 13.578521 16.187616 34.731836 24.926685 42.474959 47.721206 2.791452 8.220055 18.75463 11.165808 25.670137 19.133369 42.278575 48.661041 73.629808 103.718575 95.961425 165.663562l-24.421699-0.64526c46.332493 14.574466 37.593425 56.011397 45.546959 87.769424 4.390575 17.562301 4.067945 36.260822 6.031781 55.857096l-20.087233-1.150246c23.047014 21.12526 22.962849 44.522959 18.067287 70.052822zM830.744548 461.417205c-5.751233-8.739068-13.718795-16.903014-16.888986-26.315397-22.079123-65.690301-61.103342-119.75189-120.56548-159.870246-74.275068-50.105863-154.161096-64.427836-238.998794-47.594959-9.664877 1.921753-20.620274-0.96789-31.337206-4.867507 5.456658-5.568877 18.796712 6.270247 17.618411-9.720986-0.05611-0.757479 5.232219-2.019945 8.163945-2.272439 28.798247-2.567014 57.596493-5.246247 86.478904-7.153972 4.558904-0.294575 9.566685 3.296438 14.44822 4.769315 4.825425 1.472877 11.460384 5.077918 14.336 3.366575 17.436055-10.380274 24.337534-0.476932 30.593753 19.876822l3.759343-21.265534c9.945425 6.803288 19.792658 13.648658 29.766137 20.311671 2.412712 1.627178 5.779288 4.306411 7.743123 3.759342 24.51989-6.859397 42.026082 9.749041 59.476164 21.461918a378.88 378.88 0 0 1 60.247671 49.937534c11.221918 11.558575 23.341589 23.299507 31.884274 37.270795 9.398356 15.36 19.498082 30.509589 27.143014 46.627068 7.883397 16.650521 13.326027 34.296986 19.470027 51.620822 1.907726 5.358466 2.567014 11.067616 3.787398 16.608439l-7.125918 3.450739zM504.803945 978.88789c27.872438-0.126247 55.744877-0.673315 83.631343-0.168328 13.438247 0.238466 26.904548 2.454795 41.675397 3.899616 0.028055-0.490959 0.140274-4.909589 0.140274-4.320438 44.256438-17.646466 87.082082-33.890192 129.122192-51.831233 21.742466-9.286137 24.505863-9.973479 45.168219 10.029589-11.306082 12.302027-23.706301 18.165479-42.180384 5.947616l5.582904 14.490302c-14.223781 17.422027-38.098411 13.354082-56.193753 24.127123-32.06663 19.119342-47.889534 18.698521-52.041644 10.730959-9.244055 4.446685-17.772712 11.32011-27.213151 12.624657-30.677918 4.180164-61.608329 7.139945-92.580821 8.977535-23.888658 1.444822-30.846247-6.648986-29.976548-29.80822 0.05611-1.444822-3.408658-3.100055-5.23222-4.671123l0.098192-0.028055zM284.700055 724.206466l11.839123-0.476932 0.70137-4.909589-25.529863-3.689205 0.519014-4.222247 13.354082 1.108165c-7.771178-7.616877-12.624658-16.44011-17.590356-16.468165-16.650521-0.098192-16.454137-9.91737-16.973151-21.840657-0.154301-3.787397-5.218192-7.743123-8.696986-10.899288-11.656767-10.56263-12.821041-24.183233-0.911781-40.819726 8.163945 19.343781 15.121534 37.551342 23.622137 54.97337 3.01589 6.186082 10.843178 9.791123 14.756822 15.73874 31.070685 47.146082 76.842082 77.136658 126.358794 98.472328 45.869589 19.736548 96.592658 22.920767 147.021151 15.570411 15.388055-2.230356 31.224986-8.206027 45.37863 9.636822-32.361205 5.793315-62.127342 18.670466-94.572712 7.462575-4.853479-1.683288-11.96537 4.025863-17.46411 3.086028-15.121534-2.552986-33.09063 2.637151-43.695342-14.06948-0.771507-1.206356-2.69326-2.146192-4.208219-2.356602-54.173808-7.855342-60.542247-8.781151-92.356384-30.860274-22.640219-15.710685-43.232438-34.409205-64.750466-51.761096l3.198247-3.675178zM501.563616 170.755507c-27.26926-12.736877-47.903562-11.221918-69.800328 11.726904 3.927671-30.453479-2.665205-50.161973-29.541699-64.091178 29.176986-6.971616 45.252384-21.504 51.438466-50.905425 12.905205 26.273315 30.860274 36.120548 59.953096 32.669808-19.147397 22.20537-26.217205 42.965918-12.049535 70.599891zM159.295123 717.403178c-12.947288-22.962849-30.102795-35.769863-62.02915-31.561644 22.640219-21.658301 29.780164-41.941918 18.235616-70.838356 26.189151 12.203836 47.861479 14.700712 71.146959-7.139945-3.366575 29.120877-0.168329 51.382356 24.758356 65.465863-26.273315 5.653041-43.70937 18.403945-52.111781 44.074082z" fill="#FE6604" p-id="2489"></path><path d="M593.246685 970.527562c-11.432329-24.056986-30.01863-33.385205-58.634521-32.192877 21.139288-20.592219 28.405479-41.128329 17.702576-69.926575 25.501808 11.881205 46.739288 13.845041 70.389479-8.781151-5.358466 30.158904 0.490959 51.045699 25.642082 66.88263-28.882411 4.853479-46.150137 18.095342-55.099616 44.017973zM873.401863 421.256767c1.024-23.215342-2.10411-43.372712-30.986521-55.338082 26.904548-7.308274 44.158247-18.263671 47.931617-48.254247 13.760877 25.992767 31.80011 35.13863 50.751123 33.806028l-11.600657 60.023233c-5.470685-1.108164-16.271781-5.807342-26.175124-4.558904-9.650849 1.220384-18.403945 8.51463-29.920438 14.321972zM733.843288 130.118137c-1.977863 24.071014 7.476603 41.941918 33.216876 57.72274-28.138959 3.899616-43.428822 16.44011-50.218082 42.965918-14.39211-24.51989-32.683836-35.363068-62.814685-33.385206 20.409863-19.498082 26.231233-38.659507 14.251836-62.926904 24.786411 11.053589 45.420712 9.847233 65.564055-4.376548zM599.811507 749.217315l17.702575-49.867397 118.391233 47.454685-24.702247 42.783561-111.391561-40.370849zM293.733699 896.462904c2.174247-25.249315-6.817315-43.667288-31.056658-59.434082 27.100932-4.208219 44.298521-14.700712 48.632986-43.807562 14.939178 23.22937 30.116822 38.421041 59.854905 34.886137-15.654575 20.564164-24.393644 38.926027-11.32011 65.059069-25.375562-9.524603-46.711233-14.350027-66.111123 3.296438zM586.42937 500.707945l71.399452-25.740274 18.726575 37.972165-76.252931 26.006794c-4.769315-13.129644-9.117808-25.151123-13.887124-38.238685zM420.21874 367.784329l43.260493-5.021808 14.448219 73.363287-46.472767 5.330411-11.235945-73.67189z" fill="#FE6604" p-id="2490"></path></svg>