<?xml version="1.0" standalone="no"?><!DOCTYPE svg PUBLIC "-//W3C//DTD SVG 1.1//EN" "http://www.w3.org/Graphics/SVG/1.1/DTD/svg11.dtd"><svg t="1545637496993" class="icon" style="" viewBox="0 0 1024 1024" version="1.1" xmlns="http://www.w3.org/2000/svg" p-id="1324" xmlns:xlink="http://www.w3.org/1999/xlink" width="200" height="200"><defs><style type="text/css"></style></defs><path d="M780.607 705.825c0 74.083-60.105 134.188-134.188 134.188L258.769 840.013c-74.083 0-134.187-60.104-134.187-134.188l0-387.65c0-74.083 60.104-134.188 134.187-134.188L646.42 183.987c18.637 0 37.273 3.728 54.514 11.648 4.193 1.863 7.455 6.057 8.387 10.716 0.932 5.126-0.467 9.785-4.193 13.513l-22.83 22.83c-2.797 2.796-6.99 4.659-10.717 4.659-1.398 0-2.795-0.466-4.193-0.932-6.988-1.864-13.979-2.796-20.967-2.796L258.769 243.625c-41.001 0-74.548 33.547-74.548 74.549l0 387.65c0 41.002 33.547 74.549 74.548 74.549L646.42 780.373c41.002 0 74.549-33.547 74.549-74.549L720.969 587.48c0-3.728 1.396-7.455 4.193-10.251l29.818-29.818c3.262-3.262 6.99-4.66 10.717-4.66 1.863 0 3.727 0.467 5.592 1.398 5.59 2.329 9.318 7.455 9.318 13.512L780.607 705.825zM508.971 709.087c-14.909 14.91-38.206 14.91-53.115 0L255.507 508.738c-14.91-14.909-14.91-38.206 0-53.115l51.252-51.252c14.91-14.91 38.206-14.91 53.115 0L482.414 526.91l301.456-301.455c14.908-14.91 38.205-14.91 53.115 0l51.252 51.252c14.91 14.909 14.91 38.206 0 53.115L508.971 709.087z" p-id="1325" fill="#1890ff"></path></svg>