<?xml version="1.0" standalone="no"?><!DOCTYPE svg PUBLIC "-//W3C//DTD SVG 1.1//EN" "http://www.w3.org/Graphics/SVG/1.1/DTD/svg11.dtd"><svg t="1551175137651" class="icon" style="" viewBox="0 0 1024 1024" version="1.1" xmlns="http://www.w3.org/2000/svg" p-id="2272" xmlns:xlink="http://www.w3.org/1999/xlink" width="200" height="200"><defs><style type="text/css"></style></defs><path d="M870.717 330.567c-49.578 0-89.819 40.276-89.819 89.818 0 11.825 2.315 23.084 6.417 33.4L646.171 510.2l-94.59-189.179c30.474-15.138 49.727-46.248 49.682-80.275 0-49.537-40.247-89.819-89.819-89.819-49.579 0-89.814 40.282-89.814 89.82 0 35.155 20.205 65.68 49.681 80.274L376.722 510.2l-141.184-56.415a89.457 89.457 0 0 0 6.455-33.399c0-49.538-40.241-89.82-89.818-89.82-49.58 0-89.82 40.282-89.82 89.82 0 49.645 40.242 89.82 89.819 89.82 5.055 0 10.108-0.352 14.981-1.263l47.854 284.26c4.527 44.907 44.907 76.275 85.328 76.275h417.725c44.908 0 80.766-31.368 89.819-76.274l47.859-284.26c4.873 0.915 9.927 1.261 14.981 1.261 49.573 0 89.819-40.174 89.819-89.819-0.004-49.543-40.25-89.82-89.823-89.82zM597.439 799.535l-85.996-45.213-85.995 45.213 16.424-95.758-69.573-67.816 96.145-13.969 42.995-87.121 43 87.122 96.145 13.97-69.572 67.814 16.427 95.758z" fill="#FDB926" p-id="2273"></path></svg>