<?xml version="1.0" standalone="no"?><!DOCTYPE svg PUBLIC "-//W3C//DTD SVG 1.1//EN" "http://www.w3.org/Graphics/SVG/1.1/DTD/svg11.dtd"><svg t="1543051331701" class="icon" style="" viewBox="0 0 1024 1024" version="1.1" xmlns="http://www.w3.org/2000/svg" p-id="7355" xmlns:xlink="http://www.w3.org/1999/xlink" width="200" height="200"><defs><style type="text/css"></style></defs><path d="M616.779392 853.179496c-13.84124 0-27.318182-6.070252-36.976147-16.652261a54.254671 54.254671 0 0 1-14.19428-35.542495l-0.053212-0.001023V693.340091l0.040932-0.719384c0.005117-0.185218 0.001023-0.422625 0.001024-0.668219 0-0.224104 0.00307-0.435928-0.002047-0.646729l-0.027629-0.642637c-0.602727-19.240203-16.243963-34.893718-34.868136-34.893718l-0.002046-0.049118c-90.327238 1.961678-155.527193 9.704013-211.235982 25.069978-66.074881 18.225083-120.625288 48.409546-166.771281 92.279707l-3.196809 3.039219c-0.777713 0.756223-1.556449 1.51654-2.340301 2.289136l-1.297552 1.278109-1.893117 1.381464c-8.56405 6.040576-18.61087 9.233292-29.054733 9.233292-28.201296 0-51.14382-23.429619-51.14382-52.230572-0.00307-7.777127 1.642406-15.260565 4.892427-22.231327 42.082444-93.076862 95.699596-170.806177 159.37073-231.043097 86.715991-82.040505 190.095499-129.296785 307.258943-140.455939 16.71059-1.827625 29.719882-16.717753 30.27963-34.68701l0.030699-0.691755c0.00307-0.153496-0.001023-0.398066-0.001023-0.651846 0-0.218988 0.00307-0.425695-0.002046-0.636497l-0.039909-1.421372v-85.489046l0.053212-0.001024a54.377468 54.377468 0 0 1 14.158464-35.529191c9.665127-10.635221 23.155373-16.73515 37.009915-16.735149 11.952216 0 23.616884 4.342912 32.847106 12.229532l0.49221 0.431835c0.358157 0.313132 0.913812 0.802272 1.570775 1.445932l276.525988 257.129218c0.583285 0.478907 1.146103 0.984421 1.685385 1.51654l3.625574 3.406586c16.309454 16.361643 25.292036 38.259372 25.292036 61.658292 0 20.47124-7.078209 40.274262-19.932982 55.758931l-0.870833 1.049913-11.036358 10.679223-273.734408 263.807315a32.766264 32.766264 0 0 1-2.555195 2.480494c-9.376555 8.451486-21.395286 13.098319-33.905204 13.098319z m-1.196245-53.308113l0.041955 0.001024c0 1.50733 0.844228 2.711761 1.379417 3.182482l0.056282-0.065492 284.064684-273.795806c4.947685-6.389524 7.66047-14.468526 7.66047-22.886243 0-9.863648-3.64604-19.042705-10.283204-25.919323l-0.050142-0.02149L616.999402 218.652905c-0.553609 0.5137-1.376347 1.723248-1.376346 3.214205l-0.041956 0.001023v83.778079c0.041956 1.059122 0.041956 1.959631 0.041956 2.658549 0 0.821715 0 1.919722-0.064469 3.206019-1.481747 42.73429-33.732266 78.212316-75.135234 82.584903l-0.260943 0.026606c-105.851816 10.05296-199.301162 52.78418-277.754978 127.007649-58.959833 55.780421-108.832707 128.273479-148.236136 215.465306l-0.168846 0.367367c-0.091074 0.193405-0.211824 0.51677-0.210801 1.089821 0 1.211595 0.554632 1.892093 0.901533 2.125407a703.908798 703.908798 0 0 1 3.432169-3.307325l7.252171-6.938016h0.25378c108.025319-98.134041 240.603847-120.81153 405.660066-124.258025l0.00307 0.074701c44.99375 0.321318 82.666768 37.414121 84.267219 83.030042a59.566654 59.566654 0 0 1 0.065492 3.176342c0 0.705058 0 1.6158-0.041956 2.692319v105.225553h-0.002046z" fill="#666666" p-id="7356"></path></svg>