<?xml version="1.0" standalone="no"?><!DOCTYPE svg PUBLIC "-//W3C//DTD SVG 1.1//EN" "http://www.w3.org/Graphics/SVG/1.1/DTD/svg11.dtd"><svg t="1545272239818" class="icon" style="" viewBox="0 0 1024 1024" version="1.1" xmlns="http://www.w3.org/2000/svg" p-id="2721" xmlns:xlink="http://www.w3.org/1999/xlink" width="200" height="200"><defs><style type="text/css"></style></defs><path d="M511.968 416c-53.024 0-96.016 42.992-96.016 96.016 0 53.008 42.992 96.016 96.016 96.016 53.024 0 96.032-43.008 96.032-96.016C608 458.992 564.992 416 511.968 416zM511.968 304.016C564.992 304.016 608 261.024 608 208c0-53.008-43.008-96-96.032-96-53.024 0-96.016 42.976-96.016 96.016C415.952 261.04 458.944 304.016 511.968 304.016zM511.968 720c-53.024 0-96.016 43.008-96.016 96.016s42.992 96.016 96.016 96.016c53.024 0 96.032-43.008 96.032-96.016S564.992 720 511.968 720z" p-id="2722"></path></svg>