<?xml version="1.0" standalone="no"?><!DOCTYPE svg PUBLIC "-//W3C//DTD SVG 1.1//EN" "http://www.w3.org/Graphics/SVG/1.1/DTD/svg11.dtd"><svg t="1545270851853" class="icon" style="" viewBox="0 0 1024 1024" version="1.1" xmlns="http://www.w3.org/2000/svg" p-id="3381" xmlns:xlink="http://www.w3.org/1999/xlink" width="200" height="200"><defs><style type="text/css"></style></defs><path d="M481.5 65.5c-229.2 0-415 185.8-415 415s185.8 415 415 415 415-185.8 415-415-185.8-415-415-415z m0 766.2c-193.6 0-351.2-157.5-351.2-351.2s157.5-351.2 351.2-351.2 351.2 157.5 351.2 351.2-157.6 351.2-351.2 351.2z" p-id="3382" fill="#1890ff"></path><path d="M481.5 257.1c-77.2 0-141.6 54.8-156.4 127.7h66.5c13.2-37.1 48.3-63.8 89.9-63.8 52.8 0 95.8 43 95.8 95.8 0 41.6-26.8 76.7-63.8 89.9v5.9h-63.8v127.7h63.8v-67.1c72.9-14.8 127.7-79.2 127.7-156.4-0.1-88.3-71.6-159.7-159.7-159.7zM449.5 704h63.8v63.8h-63.8z" p-id="3383" fill="#1890ff"></path></svg>