<?xml version="1.0" standalone="no"?><!DOCTYPE svg PUBLIC "-//W3C//DTD SVG 1.1//EN" "http://www.w3.org/Graphics/SVG/1.1/DTD/svg11.dtd"><svg t="1545271933347" class="icon" style="" viewBox="0 0 1170 1024" version="1.1" xmlns="http://www.w3.org/2000/svg" p-id="1962" xmlns:xlink="http://www.w3.org/1999/xlink" width="228.515625" height="200"><defs><style type="text/css"></style></defs><path d="M1143.954243 1024H26.331785a26.221705 26.221705 0 0 1-26.331419-26.331419v-18.285708a26.441133 26.441133 0 0 1 26.331419-26.331419h1117.622458a26.697133 26.697133 0 0 1 26.331419 26.331419v18.285708a26.221705 26.221705 0 0 1-26.331419 26.331419zM202.240293 835.291496a37.522272 37.522272 0 0 1-37.668557-37.302844 45.970269 45.970269 0 0 1 1.82857-12.068567l73.142831-217.234208a36.790844 36.790844 0 0 1 9.142854-14.262852L795.428653 10.97179a37.595415 37.595415 0 0 1 26.697133-10.971424 37.375987 37.375987 0 0 1 26.33142 10.971424h0.365714l145.919948 144.822806a37.375987 37.375987 0 0 1 10.971424 26.331419 36.205701 36.205701 0 0 1-10.60571 25.965705L448.000206 751.908669a36.900558 36.900558 0 0 1-14.994281 9.142853l-218.697064 72.411403a32.182846 32.182846 0 0 1-12.068568 1.828571z m106.057105-234.422773L261.851701 738.742959l138.971379-46.079984L914.651468 182.126015l-92.525682-91.794253L308.297398 600.868723z" p-id="1963" fill="#1890ff"></path></svg>