<?xml version="1.0" standalone="no"?><!DOCTYPE svg PUBLIC "-//W3C//DTD SVG 1.1//EN" "http://www.w3.org/Graphics/SVG/1.1/DTD/svg11.dtd"><svg t="1542273163349" class="icon" style="" viewBox="0 0 1126 1024" version="1.1" xmlns="http://www.w3.org/2000/svg" p-id="1825" xmlns:xlink="http://www.w3.org/1999/xlink" width="219.921875" height="200"><defs><style type="text/css"></style></defs><path d="M1098.4448 722.7392h-321.1264c-13.4144 0-26.7776-13.4144-26.7776-26.7776s13.3632-26.7776 26.7776-26.7776h321.1264c13.3632 0 26.7776 13.4144 26.7776 26.7776s-13.4144 26.7776-26.7776 26.7776z m0-160.5632h-321.1264c-13.4144 0-26.7776-13.4144-26.7776-26.7776s13.3632-26.7776 26.7776-26.7776h321.1264c13.3632 0 26.7776 13.4144 26.7776 26.7776s-13.4144 26.7776-26.7776 26.7776z m-217.4464-378.0096C877.6704 187.4944 563.2 481.8944 563.2 481.8944v508.416l-214.1184-107.008v-401.408l-307.712-287.744c-3.3792-3.328-6.7072-6.656-10.0352-6.656C11.2128 167.424 1.1776 140.6464 1.1776 110.5408 1.1776 50.3296 51.3536 0.1536 111.616 0.1536h689.1008c60.2112 0 110.3872 50.176 110.3872 110.3872 0 30.1056-13.3632 56.832-30.1056 73.6256z m-80.2816-123.8016H111.5648c-26.7264 0-50.176 23.3984-50.176 50.176 0 13.4144 3.3792 26.7776 13.4144 33.4848l3.328 3.328 297.728 280.9856 20.0704 16.7424 3.3792 33.4336-3.3792 357.9392 107.008 53.5552v-444.928l20.1216-16.7424 301.056-277.6576 3.3792-3.328a42.9568 42.9568 0 0 0 13.312-33.4336c10.0864-30.1568-13.312-53.5552-40.0896-53.5552z m-23.3984 769.3824h321.1264c13.3632 0 26.7776 13.4144 26.7776 26.7776 0 13.4144-13.4144 26.7776-26.7776 26.7776h-321.1264c-13.4144 0-26.7776-13.3632-26.7776-26.7776 0-16.6912 10.0352-26.7776 26.7776-26.7776z" p-id="1826" fill="#1890ff"></path></svg>