<?xml version="1.0" standalone="no"?><!DOCTYPE svg PUBLIC "-//W3C//DTD SVG 1.1//EN" "http://www.w3.org/Graphics/SVG/1.1/DTD/svg11.dtd"><svg t="1542260503975" class="icon" style="" viewBox="0 0 1167 1024" version="1.1" xmlns="http://www.w3.org/2000/svg" p-id="1871" xmlns:xlink="http://www.w3.org/1999/xlink" width="227.9296875" height="200"><defs><style type="text/css"></style></defs><path d="M41.201759 463.52493L1110.665064 30.117647c10.32605-4.159104 21.942857 0.860504 26.101961 11.043137 1.434174 3.728852 1.864426 7.744538 1.003921 11.616807L949.033691 978.823529c-2.151261 10.89972-12.764146 17.927171-23.663865 15.632493-2.72493-0.573669-5.306443-1.721008-7.601121-3.298599L634.80624 789.79944l-163.065546 133.951821c-16.492997 13.62465-40.87395 11.186555-54.498599-5.306443-3.011765-3.728852-5.306443-7.887955-6.884034-12.477311l-102.973669-313.080112-265.178712-91.787115c-10.469468-3.585434-16.062745-15.058824-12.333893-25.528291 1.864426-5.44986 6.023529-9.895798 11.329972-12.047059z" fill="#FCFDFC" p-id="1872"></path><path d="M929.385512 1023.569748c-3.155182 0-6.453782-0.286835-9.752381-1.003922-6.740616-1.434174-12.907563-4.015686-18.50084-8.031372L635.953579 825.940616l-146.142297 120.040336c-13.911485 11.473389-31.408403 16.779832-49.335574 15.058824-17.927171-1.721008-34.133333-10.32605-45.463305-24.237535-5.306443-6.453782-9.322129-13.768067-11.903642-21.79944l-98.527731-299.598879-251.697479-87.19776c-12.333894-4.302521-22.229692-13.05098-27.966386-24.811204s-6.453782-24.954622-2.151261-37.288515c4.589356-13.337815 14.771989-23.9507 27.82297-29.257143L1099.908761 3.585434c24.954622-10.039216 53.351261 2.007843 63.533894 26.819048 3.585434 8.891877 4.445938 18.644258 2.581513 28.109804L977.143495 984.560224c-4.732773 23.090196-25.098039 39.009524-47.757983 39.009524z m-294.579272-233.770308l282.962465 201.357983c2.294678 1.577591 4.87619 2.72493 7.601121 3.298599 10.89972 2.151261 21.512605-4.87619 23.663865-15.632493L1137.914364 52.777591c0.860504-3.872269 0.430252-7.887955-1.003922-11.616807-4.159104-10.32605-15.919328-15.202241-26.101961-11.043137L41.201759 463.52493c-5.306443 2.151261-9.465546 6.597199-11.47339 12.047059-1.721008 5.019608-1.434174 10.469468 0.860505 15.345658 2.294678 4.87619 6.453782 8.461625 11.473389 10.182633l265.178711 91.787115L410.214644 905.967507c1.434174 4.589356 3.872269 8.748459 6.884033 12.477311 6.597199 8.031373 15.919328 12.907563 26.101961 13.911485 10.32605 1.003922 20.365266-2.007843 28.396639-8.605042l163.208963-133.951821z" fill="#4A4A4A" p-id="1873"></path><path d="M307.097557 592.743978l105.698599 316.091876c6.310364 18.787675 26.532213 28.970308 45.319888 22.659944 4.159104-1.434174 7.887955-3.442017 11.186555-6.166946l164.786555-133.951821-165.360224-118.892997c297.017367-287.982073 447.462185-433.980952 451.191036-437.853222 0.573669-0.573669 2.581513-3.442017 0.430252-7.027451-1.290756-1.577591-3.298599-3.298599-7.027451-2.15126-202.218487 120.327171-404.293557 242.805602-606.22521 367.291877z" fill="#CAE0EE" p-id="1874"></path><path d="M446.786072 934.794398c-5.736695 0-11.329972-1.290756-16.636414-3.872269-8.891877-4.445938-15.632493-12.047059-18.787675-21.512605L305.376549 592.313725l1.003921-0.573669C507.308201 467.684034 711.391114 344.058263 912.60568 224.161345l0.286835-0.143418c3.585434-1.147339 6.310364-0.286835 8.605042 2.581513l0.143417 0.143417c2.438095 4.015686 0.573669 7.457703-0.573669 8.74846-3.872269 4.015686-155.177591 150.87507-450.043698 436.705882l165.503642 119.036414-166.220728 135.09916c-3.442017 2.868347-7.457703 5.019608-11.760225 6.453782-3.728852 1.290756-7.744538 2.007843-11.760224 2.007843z m-137.967507-341.333334l105.268348 314.944538c2.868347 8.748459 9.035294 15.77591 17.210084 19.935014 8.17479 4.159104 17.496919 4.732773 26.245378 1.864426 3.872269-1.290756 7.60112-3.298599 10.756302-5.880112l163.352381-132.804482L466.434252 672.627451l1.290756-1.147339C763.308201 384.932213 915.043775 237.642577 918.772627 233.626891c0 0 2.007843-2.294678 0.286835-5.306443-1.003922-1.290756-2.438095-2.438095-5.306443-1.577591-200.784314 119.610084-404.293557 242.94902-604.934454 366.718207z" fill="#CAE0EE" p-id="1875"></path><path d="M460.840974 924.898599l7.457703-253.561904 165.933894 119.896918-168.658824 135.959664c-1.290756 1.003922-3.011765 0.860504-4.015686-0.430252-0.430252-0.430252-0.717087-1.147339-0.717087-1.864426z" fill="#94C3E2" p-id="1876"></path><path d="M463.709322 929.344538c-1.290756 0-2.438095-0.573669-3.2986-1.577591-0.573669-0.860504-1.003922-1.864426-1.003921-2.868348l7.60112-256.286834 169.519328 122.621848-1.434174 1.147339-168.658823 135.959664c-0.860504 0.717087-1.721008 1.003922-2.72493 1.003922z m6.023529-255.282913l-7.457703 250.836974c0 0.286835 0.143417 0.717087 0.286835 1.003922 0.430252 0.573669 1.434174 0.717087 2.007843 0.286835l167.22465-134.812325-162.061625-117.315406z" fill="#94C3E2" p-id="1877"></path></svg>