<?xml version="1.0" standalone="no"?><!DOCTYPE svg PUBLIC "-//W3C//DTD SVG 1.1//EN" "http://www.w3.org/Graphics/SVG/1.1/DTD/svg11.dtd"><svg t="1542361283311" class="icon" style="" viewBox="0 0 1033 1024" version="1.1" xmlns="http://www.w3.org/2000/svg" p-id="3685" xmlns:xlink="http://www.w3.org/1999/xlink" width="201.7578125" height="200"><defs><style type="text/css"></style></defs><path d="M214.811763 359.106449l-12.33889-42.962352a406.096522 406.096522 0 0 0-11.69957-34.842979c-4.667041-8.63083-1.726166-13.937192 8.758694-15.791222 11.571705-2.237623 28.961229-3.324468 52.232503-3.3884 3.3884 0.127864 5.881751 1.086845 7.480053 2.876943l178.114753-51.145658c4.794905-17.90098 9.589811-28.130112 14.448648-30.687394 15.983018-2.365487 34.395455 0.127864 55.301242 7.41612 7.927577 4.411313 9.525879 10.037335 4.858838 16.878067-4.539177 3.516264-5.945683 8.311169-4.155585 14.512581l11.443841 39.893613c3.068739 6.904664 1.278641 12.402822-5.24243 16.494474 16.36661 3.068739 31.45458 9.27015 45.199975 18.540301 3.963788 2.237623 5.753886 4.475245 5.24243 6.840732 0.895049 3.068739-0.703253 5.178498-4.794905 6.393207L409.165262 353.288631l8.822626 30.687394 19.946806-5.753886c6.840732-18.540301 12.722482-29.089093 17.517388-31.582444 15.983018-2.365487 35.354436 1.470438 58.178186 11.571705 8.95049 4.091653 11.188113 10.101267 6.840732 17.964913-6.009615 6.137479-7.799713 11.635637-5.306362 16.494474l33.500405 116.676032c6.840732-18.540301 12.33889-28.449772 16.430543-29.600549 10.229132-2.940875 30.687395 2.813011 61.438721 17.261659 8.758694 7.41612 8.183305 13.170007-1.726166 17.069863-49.739152 12.083162-87.906599 21.928701-114.502341 29.536618l-190.389711 54.597989a323.624149 323.624149 0 0 0-55.493038 20.905788c-2.813011 1.917962-5.626022 1.598302-8.566898-0.895049a66.361491 66.361491 0 0 1-12.786415-9.589811c-1.917962-2.813011-1.278641-4.667041 1.790098-5.498158 6.712868 0.255728 26.595742-3.835924 59.648624-12.147094 7.480052-1.022913 12.786414-1.981894 15.791222-2.876943l-29.025161-101.332334a570.14622 570.14622 0 0 0-23.974527-66.233627c-5.306362-10.676656-2.557283-16.430543 8.311169-17.325592 10.868452-0.895049 28.38584-1.53437 52.680028-1.85403 1.278641 0.767185 2.429419 0.958981 3.452332 0.639321 4.730973 0.895049 7.352188 2.365487 7.927576 4.475245l18.412437-5.306362-8.758694-30.687395-89.057376 25.508897a201.577824 201.577824 0 0 0-44.752451 17.773116c-1.790098 1.598302-4.794905 0.831117-9.014422-2.365487a17.325592 17.325592 0 0 1-4.858837-5.306362l-5.881751-3.260535c-2.940875-2.493351-2.237623-3.835924 2.17369-3.963789 27.490791-4.539177 48.396579-8.886558 62.717363-12.97821l85.988637-24.67778-10.996316-38.359244-66.041831 18.923894c0.767185 6.393207-2.813011 11.315977-10.740588 14.704376a131.060748 131.060748 0 0 1-26.276081 12.530687c-8.95049 3.644128-14.896173 0.383592-17.773116-9.84554zM91.422863 0.127864C15.983018 128.887058-2.045826 270.88019 34.842979 418.819005a575.132921 575.132921 0 0 0 697.179247 418.946869c128.631329-32.0939 221.396766-104.528938 300.033215-207.779235l0.639321-63.932072c-71.603921 94.10801-195.823937 192.883062-313.011426 222.100019a524.051196 524.051196 0 0 1-635.293001-381.674471c-33.564338-134.768808-15.151901-291.785977 63.54848-405.457202L91.422863 0.063932z m277.912718 539.075233l9.27015 32.221764 112.072923-32.0939-9.206218-32.285697-112.136855 32.157833zM358.019604 499.245552l8.822626 30.687394 112.072923-32.157832-8.758694-30.687395-112.136855 32.157833z m-11.443841-39.957546l8.822626 30.687395 112.072923-32.0939-8.758694-30.687395-112.136855 32.0939z m-7.032528-24.549915l4.411313 15.343697 112.072923-32.157832-8.822626-30.687395-105.935444 30.367734-1.086845 1.981895c-2.17369 3.963788-2.365487 8.95049-0.639321 15.151901z m144.038959-141.034151c-10.101267 7.352188-16.36661 4.730973-18.859961-7.863645l-59.904352 17.197727c4.219517 3.196604 4.475245 8.119373 0.895049 14.704377-3.516264 3.196604-4.219517 8.375101-2.17369 15.535493l3.068739 10.80452L487.929575 320.747206c2.557283-14.065056 6.137479-25.061372 10.48486-32.925017l-6.137479 1.726166a43.665605 43.665605 0 0 1-8.758694 4.155585zM446.565524 222.931136l-30.687395 8.822626 14.960105 52.232503 30.687395-8.822626-14.960105-52.232503z m-113.607292 32.605356l14.960105 52.232503 32.221764-9.27015-14.960105-52.232503-32.221764 9.27015z m-77.869264 35.610165l11.507773 39.957545 30.687395-8.822626-15.024037-52.232503-24.549916 7.032528c-3.516264 3.196604-4.347381 7.927577-2.557283 14.065056z m425.14828 132.339389l-66.93688-233.352063-19.946806 5.753886a99.094712 99.094712 0 0 0-22.184429 9.589811c-3.835924 2.237623-6.521071 2.429419-8.119373 0.639321a36.952738 36.952738 0 0 1-6.7768-6.329275 18.540301 18.540301 0 0 0-4.411313-3.708061c-1.917962-2.749079-1.150777-4.091653 2.17369-3.963788 14.960105-2.045826 29.025161-4.986702 42.386964-8.822626l65.977899-18.923893c4.986702-21.353312 10.740588-34.075794 17.261659-38.167448 6.521071-0.767185 16.622339 1.917962 30.559531 7.863645l16.878067-4.858837c8.502966-1.278641 14.768309-2.557283 18.859961-3.70806l107.533746-30.815259c8.119373-25.636761 14.768309-39.19036 19.882874-40.660798 12.914279-1.470438 32.349629 4.603109 58.369982 18.156708 5.114566 6.329275 4.283449 10.996316-2.557283 14.065056a1609.809577 1609.809577 0 0 0-87.970531 23.590935l-3.06874 0.831117c2.493351 4.858837 1.598302 9.525879-2.621215 14.065056a32.221764 32.221764 0 0 0-10.293063 16.238746 117.123556 117.123556 0 0 1-13.617532 45.391771l47.629394-13.617531c5.370294-15.983018 10.48486-25.125304 15.343697-27.618655a102.930636 102.930636 0 0 1 57.027409 13.553599c7.671849 3.324468 9.078354 8.439034 4.475245 15.343697-4.603109 3.516264-5.817819 8.822626-3.771992 15.983018l8.311169 29.216957c6.521071 22.504089 16.36661 52.935756 29.536617 91.231067 3.516264 12.274958 1.150777 21.28938-7.224324 26.979335a12.274958 12.274958 0 0 0-4.155585 2.876943 163.346444 163.346444 0 0 1-25.189236 10.548792c-0.767185 1.278641-2.17369 2.237623-4.219517 2.876943 30.431666-2.109758 54.342261 2.109758 71.795717 12.658551 22.120497 19.11569 23.271274 38.742836 3.580196 58.817506-11.507773 9.909471-28.833365 3.835924-51.784978-18.412437-22.568021-16.814135-44.496722-27.682587-65.850035-32.605357-11.699569 44.304926-52.999688 83.814947-123.900355 118.530062-6.840732 3.132672-10.612724 3.644128-11.188113 1.598302-2.940875-2.557283-1.278641-6.329275 5.050634-11.443841 69.685959-54.342261 94.619467-114.118749 74.800524-179.329462l-6.137479-21.481177c-7.032528-24.549916-14.001124-43.090217-20.841855-55.493038-3.132672-6.904664-4.283449-10.996316-3.516264-12.274958 1.406506-2.621215 5.370294-4.347381 11.827433-5.114566a274.26859 274.26859 0 0 1 46.031092-1.53437c9.845539-0.639321 12.978211 4.603109 9.461947 15.535494a17.261659 17.261659 0 0 0-1.086846 13.617531l15.40763 53.702941c6.457139 22.568021 8.758694 44.11313 6.904664 64.571393 11.124181 0.127864 21.928701-0.767185 32.477492-2.685147-3.70806-1.150777-6.521071-5.306362-8.566897-12.466754l-44.944247-156.633577-92.062184 26.403946 22.82375 79.851158c2.940875 10.229132 6.393207 20.330399 10.356995 30.23987 4.539177 12.01923 8.566898 24.166323 12.147094 36.441281 5.114566 14.065056 2.557283 24.741712-7.480052 32.029968a43.665605 43.665605 0 0 0-8.758694 4.155585 147.683087 147.683087 0 0 1-15.599426 9.461947c-12.402822 6.904664-20.458263 1.981894-24.102391-14.704377a1323.329962 1323.329962 0 0 0-22.056565-88.354124l-8.822626-30.687394c-8.183305-28.7055-15.919086-49.739152-23.079478-63.164888-5.306362-10.676656-1.981894-16.622339 9.845539-17.837048 5.434226-0.447525 15.535494 0 30.303802 1.278642 7.032528 1.342574 12.722482 1.917962 17.133796 1.790098 5.689954 0.575389 9.461947 2.237623 11.379909 4.986701a239.297746 239.297746 0 0 0-11.891366-64.699257l-35.354436 10.1652a12.274958 12.274958 0 0 0-4.155584 2.813011c6.904664 4.667041 7.032528 9.078354 0.447524 13.170007l-46.031092 13.233939c1.470438 5.114566 0.639321 9.781607-2.621215 14.065056a15.663358 15.663358 0 0 0-3.70806 15.983018l27.746519 96.729225c7.607917 26.595742 21.864769 72.371106 42.642692 137.326091 6.393207 18.156708 3.324468 32.861085-8.95049 44.11313-2.17369 3.963788-8.822626 9.717675-19.946806 17.325591l-4.155585 2.876944c-12.147094 7.927577-20.841856 6.521071-26.084285-4.155585-10.868452-14.576512-23.590935-20.394331-38.231379-17.26166-9.078354-0.767185-14.065056-2.621215-14.896173-5.753886-0.895049-3.004807 3.899856-5.498158 14.448648-7.416121 27.490791-4.603109 37.528126-17.964912 30.048074-40.213273z" p-id="3686" fill="#F47201"></path></svg>